<svg viewBox="0 0 800 480" xmlns="http://www.w3.org/2000/svg">
  <defs>
    <linearGradient id="moguBg" x1="0" y1="0" x2="800" y2="480" gradientUnits="userSpaceOnUse">
      <stop offset="0%" stop-color="#d7dcfb"/>
      <stop offset="55%" stop-color="#eef0fc"/>
      <stop offset="100%" stop-color="#f7f8fe"/>
    </linearGradient>
    <linearGradient id="moguBtn" x1="0" y1="0" x2="0" y2="1">
      <stop offset="0%" stop-color="#2e3bf2"/>
      <stop offset="100%" stop-color="#1c27c9"/>
    </linearGradient>
  </defs>

  <!-- browser chrome -->
  <rect x="0" y="0" width="800" height="34" fill="#202124"/>
  <circle cx="16" cy="17" r="6" fill="none" stroke="#5f6368" stroke-width="1.4"/>
  <circle cx="38" cy="17" r="6" fill="none" stroke="#5f6368" stroke-width="1.4"/>
  <path d="M56 13 L61 17 L56 21" fill="none" stroke="#5f6368" stroke-width="1.4" stroke-linecap="round" stroke-linejoin="round"/>
  <rect x="80" y="8" width="500" height="18" rx="9" fill="#2d2e30"/>
  <circle cx="94" cy="17" r="3.4" fill="none" stroke="#8a8d92" stroke-width="1.2"/>
  <text x="106" y="21" font-family="Arial, sans-serif" font-size="11" fill="#9aa0a6">mogu-stock-horatio-im9i297ok-ahiaforcredo-6458s-projects.vercel.app</text>
  <circle cx="742" cy="17" r="3" fill="#5f6368"/>
  <circle cx="758" cy="17" r="3" fill="#5f6368"/>
  <circle cx="774" cy="17" r="3" fill="#5f6368"/>

  <!-- page background -->
  <rect x="0" y="34" width="800" height="446" fill="url(#moguBg)"/>

  <!-- login card -->
  <rect x="240" y="80" width="320" height="360" rx="22" fill="#ffffff" stroke="#eceefb" stroke-width="1"/>

  <!-- logo circle -->
  <circle cx="400" cy="132" r="30" fill="#eef0fb"/>
  <text x="400" y="139" font-family="Arial, sans-serif" font-size="16" font-weight="700" text-anchor="middle" fill="#1c2bd6">MOGU</text>

  <text x="400" y="182" font-family="Arial, sans-serif" font-size="13" font-weight="700" letter-spacing="1" text-anchor="middle" fill="#1c2bd6">MOGU STOCK</text>
  <text x="400" y="210" font-family="Arial, sans-serif" font-size="22" font-weight="700" text-anchor="middle" fill="#161b3d">Connexion</text>
  <text x="400" y="230" font-family="Arial, sans-serif" font-size="11.5" text-anchor="middle" fill="#8a8d9c">Entrez vos identifiants pour continuer</text>

  <!-- identifiant field -->
  <rect x="264" y="252" width="272" height="42" rx="10" fill="#ffffff" stroke="#3d4bf5" stroke-width="1.6"/>
  <circle cx="284" cy="273" r="6" fill="none" stroke="#9aa0c0" stroke-width="1.4"/>
  <path d="M275 285 q9 -9 18 0" fill="none" stroke="#9aa0c0" stroke-width="1.4" stroke-linecap="round"/>
  <text x="300" y="277" font-family="Arial, sans-serif" font-size="12" fill="#a7abc4">Identifiant</text>

  <!-- password field -->
  <rect x="264" y="304" width="272" height="42" rx="10" fill="#ffffff" stroke="#e7e8f4" stroke-width="1.4"/>
  <rect x="277" y="318" width="14" height="10" rx="2" fill="none" stroke="#9aa0c0" stroke-width="1.3"/>
  <path d="M280 318 v-4 a4 4 0 0 1 8 0 v4" fill="none" stroke="#9aa0c0" stroke-width="1.3"/>
  <text x="300" y="329" font-family="Arial, sans-serif" font-size="12" fill="#a7abc4">Mot de passe</text>
  <ellipse cx="518" cy="325" rx="8" ry="5" fill="none" stroke="#b7bad0" stroke-width="1.2"/>
  <circle cx="518" cy="325" r="1.6" fill="#b7bad0"/>

  <text x="536" y="364" font-family="Arial, sans-serif" font-size="11" text-anchor="end" fill="#3d4bf5">Mot de passe oublié ?</text>

  <!-- submit button -->
  <rect x="264" y="378" width="272" height="46" rx="23" fill="url(#moguBtn)"/>
  <text x="400" y="406" font-family="Arial, sans-serif" font-size="13" font-weight="700" text-anchor="middle" fill="#ffffff">Se connecter</text>

  <text x="400" y="435" font-family="Arial, sans-serif" font-size="11" text-anchor="middle" fill="#a7abc4">Franchisé Horatio</text>
</svg>
